<svg width="70" height="32" viewBox="0 0 70 32" fill="none" xmlns="http://www.w3.org/2000/svg">
<g clip-path="url(#clip0_8109_1246)">
<mask id="mask0_8109_1246" style="mask-type:luminance" maskUnits="userSpaceOnUse" x="0" y="10" width="70" height="18">
<path d="M70 10H0V27.6484H70V10Z" fill="white"/>
</mask>
<g mask="url(#mask0_8109_1246)">
<path d="M14.0898 10.3643H16.4758V12.1431C16.8842 11.4573 17.4646 10.9322 18.2385 10.5572C19.0122 10.1821 19.8828 9.98926 20.8716 9.98926C22.0646 9.98926 23.1179 10.2679 24.0422 10.8251C24.9666 11.3823 25.6758 12.1645 26.181 13.1718C26.6862 14.179 26.944 15.3363 26.944 16.6436C26.944 17.9509 26.6862 19.1403 26.181 20.1368C25.6758 21.1441 24.9557 21.9263 24.0422 22.4835C23.1286 23.0408 22.0646 23.3194 20.8716 23.3194C19.9581 23.3194 19.152 23.1479 18.4426 22.8265C17.7333 22.4942 17.1744 22.0227 16.7767 21.412V27.627H14.1006V10.3643H14.0898ZM17.7547 19.7296C18.4426 20.5226 19.2917 20.9191 20.4202 20.9191C21.5488 20.9191 22.4193 20.5226 23.1179 19.7296C23.8165 18.9367 24.1605 17.9509 24.1605 16.665C24.1605 15.3792 23.8165 14.4148 23.1179 13.6218C22.4193 12.8289 21.5488 12.4324 20.4202 12.4324C19.2917 12.4324 18.4426 12.8289 17.7547 13.6218C17.067 14.4148 16.723 15.3899 16.723 16.665C16.723 17.9402 17.067 18.9367 17.7547 19.7296Z" fill="black"/>
<path d="M31.4155 22.5051C30.4913 21.9478 29.7819 21.1656 29.2767 20.1583C28.7716 19.1511 28.5137 17.9831 28.5137 16.6651C28.5137 15.3471 28.7716 14.2005 29.2767 13.1932C29.7819 12.186 30.502 11.4038 31.4155 10.8466C32.3291 10.2893 33.3931 10.0107 34.5861 10.0107C35.5641 10.0107 36.4347 10.1929 37.1978 10.5572C37.9609 10.9216 38.552 11.4359 38.9712 12.1003V10.3644H41.3357V22.9657H38.9712V21.2084C38.552 21.8728 37.9609 22.3871 37.1978 22.7729C36.4347 23.1479 35.5641 23.3408 34.5861 23.3408C33.3931 23.3408 32.3398 23.0622 31.4155 22.5051ZM32.3183 19.7511C33.0062 20.5334 33.909 20.9191 35.016 20.9191C36.123 20.9191 37.0151 20.5334 37.6922 19.7511C38.3693 18.9689 38.7025 17.9402 38.7025 16.6651C38.7025 15.3899 38.3693 14.3827 37.6922 13.6004C37.0151 12.8182 36.123 12.4324 35.016 12.4324C33.909 12.4324 33.0062 12.8289 32.3183 13.6004C31.6304 14.3827 31.2758 15.4006 31.2758 16.6651C31.2758 17.9295 31.6197 18.9689 32.3183 19.7511Z" fill="black"/>
<path d="M44.571 25.2911H50.5359C51.3958 25.2911 52.0514 25.0554 52.5028 24.5946C52.9542 24.1338 53.1692 23.4587 53.1692 22.5908V20.8013C52.7178 21.3906 52.1697 21.8407 51.514 22.13C50.8584 22.4193 50.1383 22.5586 49.3429 22.5586C48.1714 22.5586 47.1181 22.3014 46.2046 21.7764C45.2803 21.2513 44.571 20.512 44.0659 19.5476C43.5607 18.5832 43.3027 17.4902 43.3027 16.2472C43.3027 15.0042 43.5607 13.9434 44.0659 13.0004C44.571 12.0574 45.2911 11.3181 46.2046 10.8037C47.129 10.2787 48.1714 10.0215 49.3429 10.0215C50.1705 10.0215 50.9336 10.1715 51.6323 10.4823C52.3308 10.793 52.922 11.2431 53.3948 11.8538V10.3644H55.7593V22.3765C55.7593 24.1552 55.3079 25.484 54.4159 26.3519C53.5239 27.2199 52.2557 27.6485 50.6326 27.6485H44.5602V25.2911H44.571ZM47.0537 19.0546C47.7093 19.7726 48.5583 20.1369 49.6009 20.1369C50.6435 20.1369 51.5032 19.7726 52.1481 19.0546C52.8038 18.3367 53.1261 17.3937 53.1261 16.2472C53.1261 15.1006 52.8038 14.1898 52.1481 13.4826C51.4925 12.7754 50.6435 12.4218 49.6009 12.4218C48.5583 12.4218 47.6986 12.7754 47.0537 13.4826C46.398 14.1898 46.0757 15.1113 46.0757 16.2472C46.0757 17.383 46.398 18.3367 47.0537 19.0546Z" fill="black"/>
<path d="M59.4774 21.2834C58.3274 20.1583 57.7578 18.5938 57.7578 16.6007C57.7578 15.272 58.0158 14.1147 58.5316 13.1182C59.0475 12.1217 59.7999 11.3502 60.7242 10.8144C61.6485 10.2679 62.734 10 63.9269 10C65.7971 10 67.2803 10.5679 68.3658 11.6931C69.4513 12.8182 69.9995 14.4255 69.9995 16.365C69.9995 16.6436 69.978 17.0508 69.9242 17.5651H60.434C60.5092 18.626 60.8962 19.3118 61.6163 19.8904C62.3364 20.469 63.3788 20.7048 64.7438 20.7048H69.2149V22.9765H64.5503C62.2933 22.9765 60.6275 22.4086 59.4882 21.2834H59.4774ZM67.334 15.5078V15.3792C67.334 14.4148 67.0331 13.6326 66.4312 13.0432C65.8294 12.4538 65.0017 12.1538 63.9378 12.1538C62.8737 12.1538 62.0891 12.4646 61.455 13.0753C60.8209 13.6968 60.4877 14.5005 60.434 15.4971H67.334V15.5078Z" fill="black"/>
<path d="M0 10.3643H3.15983L7.89959 16.665L12.6399 22.9765H9.48001L6.31991 18.7685L3.15983 22.9765H0L4.73975 16.665L0 10.3643Z" fill="black"/>
<path d="M7.52332 12.9681L9.47938 10.3643H12.6392L9.54388 14.479C9.03874 15.1541 8.02845 15.1541 7.52332 14.479C7.19014 14.029 7.19014 13.4182 7.52332 12.9681Z" fill="black"/>
</g>
</g>
<defs>
<clipPath id="clip0_8109_1246">
<rect width="70" height="17.193" fill="white" transform="translate(0 10)"/>
</clipPath>
</defs>
</svg>
