<svg width="70" height="32" viewBox="0 0 70 32" fill="none" xmlns="http://www.w3.org/2000/svg">
<path d="M14.0903 7.37504H16.4763V9.15382C16.8847 8.46802 17.4651 7.94296 18.2389 7.56792C19.0127 7.19288 19.8833 7 20.8721 7C22.0651 7 23.1184 7.2786 24.0427 7.83581C24.9671 8.39302 25.6763 9.17525 26.1815 10.1825C26.6867 11.1898 26.9445 12.347 26.9445 13.6543C26.9445 14.9616 26.6867 16.151 26.1815 17.1476C25.6763 18.1548 24.9562 18.937 24.0427 19.4943C23.1291 20.0515 22.0651 20.3301 20.8721 20.3301C19.9586 20.3301 19.1525 20.1586 18.4431 19.8372C17.7338 19.505 17.1749 19.0335 16.7772 18.4227V24.6377H14.1011V7.37504H14.0903ZM17.7552 16.7404C18.4431 17.5333 19.2921 17.9298 20.4207 17.9298C21.5493 17.9298 22.4198 17.5333 23.1184 16.7404C23.817 15.9474 24.161 14.9616 24.161 13.6758C24.161 12.3899 23.817 11.4255 23.1184 10.6326C22.4198 9.8396 21.5493 9.44313 20.4207 9.44313C19.2921 9.44313 18.4431 9.8396 17.7552 10.6326C17.0674 11.4255 16.7235 12.4006 16.7235 13.6758C16.7235 14.9509 17.0674 15.9474 17.7552 16.7404Z" fill="black"/>
<path d="M31.4155 19.5158C30.4913 18.9586 29.7819 18.1763 29.2767 17.1691C28.7716 16.1618 28.5137 14.9938 28.5137 13.6758C28.5137 12.3578 28.7716 11.2112 29.2767 10.204C29.7819 9.19673 30.502 8.4145 31.4155 7.85729C32.3291 7.30009 33.3931 7.02148 34.5861 7.02148C35.5641 7.02148 36.4347 7.20365 37.1978 7.56797C37.9609 7.9323 38.552 8.44665 38.9712 9.11101V7.3751H41.3357V19.9765H38.9712V18.2192C38.552 18.8835 37.9609 19.3978 37.1978 19.7836C36.4347 20.1587 35.5641 20.3515 34.5861 20.3515C33.3931 20.3515 32.3398 20.0729 31.4155 19.5158ZM32.3183 16.7619C33.0062 17.5441 33.909 17.9299 35.016 17.9299C36.123 17.9299 37.0151 17.5441 37.6922 16.7619C38.3693 15.9796 38.7025 14.951 38.7025 13.6758C38.7025 12.4007 38.3693 11.3934 37.6922 10.6112C37.0151 9.82894 36.123 9.44318 35.016 9.44318C33.909 9.44318 33.0062 9.83966 32.3183 10.6112C31.6304 11.3934 31.2758 12.4114 31.2758 13.6758C31.2758 14.9402 31.6197 15.9796 32.3183 16.7619Z" fill="black"/>
<path d="M44.5707 22.3018H50.5357C51.3955 22.3018 52.0511 22.0661 52.5025 21.6053C52.9539 21.1445 53.169 20.4695 53.169 19.6015V17.812C52.7175 18.4014 52.1694 18.8514 51.5137 19.1407C50.8582 19.43 50.1381 19.5694 49.3427 19.5694C48.1712 19.5694 47.1179 19.3122 46.2043 18.7871C45.2801 18.2621 44.5707 17.5227 44.0656 16.5583C43.5605 15.5939 43.3025 14.5009 43.3025 13.2579C43.3025 12.0149 43.5605 10.9541 44.0656 10.0111C44.5707 9.06817 45.2908 8.3288 46.2043 7.81446C47.1287 7.2894 48.1712 7.03223 49.3427 7.03223C50.1703 7.03223 50.9334 7.18224 51.632 7.49299C52.3305 7.80374 52.9217 8.25379 53.3946 8.86458V7.37512H55.7591V19.3872C55.7591 21.1659 55.3077 22.4947 54.4157 23.3627C53.5236 24.2306 52.2554 24.6592 50.6324 24.6592H44.56V22.3018H44.5707ZM47.0535 16.0654C47.7091 16.7833 48.5581 17.1477 49.6007 17.1477C50.6432 17.1477 51.503 16.7833 52.1478 16.0654C52.8035 15.3475 53.1259 14.4045 53.1259 13.2579C53.1259 12.1114 52.8035 11.2006 52.1478 10.4933C51.4923 9.78611 50.6432 9.43249 49.6007 9.43249C48.5581 9.43249 47.6983 9.78611 47.0535 10.4933C46.3978 11.2006 46.0754 12.1221 46.0754 13.2579C46.0754 14.3938 46.3978 15.3475 47.0535 16.0654Z" fill="black"/>
<path d="M59.4779 18.2942C58.3279 17.169 57.7583 15.6046 57.7583 13.6115C57.7583 12.2828 58.0163 11.1255 58.5321 10.129C59.048 9.13241 59.8004 8.3609 60.7247 7.82512C61.649 7.27863 62.7345 7.01074 63.9274 7.01074C65.7976 7.01074 67.2808 7.57866 68.3663 8.7038C69.4518 9.82892 70 11.4362 70 13.3758C70 13.6543 69.9785 14.0615 69.9247 14.5759H60.4345C60.5097 15.6367 60.8966 16.3225 61.6167 16.9011C62.3368 17.4798 63.3793 17.7155 64.7443 17.7155H69.2154V19.9872H64.5508C62.2938 19.9872 60.628 19.4193 59.4887 18.2942H59.4779ZM67.3345 12.5185V12.3899C67.3345 11.4255 67.0336 10.6433 66.4317 10.0539C65.8299 9.46459 65.0022 9.16456 63.9383 9.16456C62.8742 9.16456 62.0896 9.47531 61.4555 10.0861C60.8214 10.7076 60.4882 11.5113 60.4345 12.5078H67.3345V12.5185Z" fill="black"/>
<path d="M0 7.375H3.15983L7.89959 13.6757L12.6399 19.9872H9.48001L6.31991 15.7792L3.15983 19.9872H0L4.73975 13.6757L0 7.375Z" fill="black"/>
<path d="M7.52332 9.97886L9.47938 7.375H12.6392L9.54388 11.4897C9.03874 12.1648 8.02845 12.1648 7.52332 11.4897C7.19014 11.0397 7.19014 10.4289 7.52332 9.97886Z" fill="black"/>
</svg>
