<svg width="180" height="180" viewBox="0 0 180 180" fill="none" xmlns="http://www.w3.org/2000/svg">
<path fill-rule="evenodd" clip-rule="evenodd" d="M0.332031 25.0835V50.167H25.4155H50.4991V25.0835V0H25.4155H0.332031V25.0835ZM57.6658 10.7501V21.5002H61.2491H64.8325V17.9168V14.3334H68.4159H71.9992V21.5002V28.6669H64.8325H57.6658V32.2502V35.8336H61.2491H64.8325V39.417V43.0003H61.2491H57.6658V46.5837V50.167H61.2491H64.8325V46.5837V43.0003H68.4159H71.9992V46.5837V50.167H75.5826H79.1659V46.5837V43.0003H82.7493H86.3327V46.5837V50.167H89.916H93.4994V53.7504V57.3338H89.916H86.3327V71.6672V86.0006H79.1659H71.9992V78.8339V71.6672H75.5826H79.1659V68.0838V64.5005H75.5826H71.9992V60.9171V57.3338H46.9157H21.8322V60.9171V64.5005H14.6655H7.49875V60.9171V57.3338H3.91539H0.332031V64.5005V71.6672H3.91539H7.49875V75.2505V78.8339H3.91539H0.332031V100.334V121.834H3.91539H7.49875V114.668V107.501H11.0821H14.6655V114.668V121.834H18.2488H21.8322V114.668V107.501H25.4155H28.9989V111.084V114.668H32.5823H36.1656V118.251V121.834H43.3323H50.4991V118.251V114.668H54.0824H57.6658V136.168V157.668H64.8325H71.9992V164.835V172.001H64.8325H57.6658V175.585V179.168H64.8325H71.9992V175.585V172.001H75.5826H79.1659V168.418V164.835H82.7493H86.3327V157.668V150.501H89.916H93.4994V146.918V143.334H97.0827H100.666V150.501V157.668H97.0827H93.4994V161.251V164.835H97.0827H100.666V168.418V172.001H104.249H107.833V168.418V164.835H118.583H129.333V161.251V157.668H132.916H136.5V154.084V150.501H143.666H150.833V132.584V114.668H154.416H158V121.834V129.001H165.167H172.333V132.584V136.168H168.75H165.167V139.751V143.334H172.333H179.5V136.168V129.001H175.917H172.333V121.834V114.668H175.917H179.5V107.501V100.334H175.917H172.333V96.7507V93.1673H175.917H179.5V82.4173V71.6672H175.917H172.333V68.0838V64.5005H175.917H179.5V60.9171V57.3338H168.75H158V60.9171V64.5005H154.416H150.833V60.9171V57.3338H147.25H143.666V60.9171V64.5005H140.083H136.5V68.0838V71.6672H132.916H129.333V64.5005V57.3338H125.75H122.166V64.5005V71.6672H118.583H115V64.5005V57.3338H107.833H100.666V53.7504V50.167H104.249H107.833V46.5837V43.0003H104.249H100.666V39.417V35.8336H97.0827H93.4994V32.2502V28.6669H97.0827H100.666V21.5002V14.3334H104.249H107.833V17.9168V21.5002H111.416H115V35.8336V50.167H118.583H122.166V35.8336V21.5002H118.583H115V17.9168V14.3334H118.583H122.166V10.7501V7.16672H118.583H115V10.7501V14.3334H111.416H107.833V10.7501V7.16672H104.249H100.666V3.58336V0H97.0827H93.4994V3.58336V7.16672H97.0827H100.666V10.7501V14.3334H97.0827H93.4994V21.5002V28.6669H86.3327H79.1659V25.0835V21.5002H82.7493H86.3327V17.9168V14.3334H82.7493H79.1659V10.7501V7.16672H82.7493H86.3327V3.58336V0H82.7493H79.1659V3.58336V7.16672H71.9992H64.8325V3.58336V0H61.2491H57.6658V10.7501ZM129.333 25.0835V50.167H154.416H179.5V25.0835V0H154.416H129.333V25.0835ZM42.974 25.0835V42.642H25.4155H7.85709V25.0835V7.52505H25.4155H42.974V25.0835ZM171.975 25.0835V42.642H154.416H136.858V25.0835V7.52505H154.416H171.975V25.0835ZM14.6655 25.0835V35.8336H25.4155H36.1656V25.0835V14.3334H25.4155H14.6655V25.0835ZM143.666 25.0835V35.8336H154.416H165.167V25.0835V14.3334H154.416H143.666V25.0835ZM79.1659 32.2502V35.8336H75.5826H71.9992V32.2502V28.6669H75.5826H79.1659V32.2502ZM93.4994 39.417V43.0003H97.0827H100.666V46.5837V50.167H97.0827H93.4994V46.5837V43.0003H89.916H86.3327V39.417V35.8336H89.916H93.4994V39.417ZM100.666 60.9171V64.5005H97.0827H93.4994V60.9171V57.3338H97.0827H100.666V60.9171ZM28.9989 71.6672V78.8339H21.8322H14.6655V75.2505V71.6672H18.2488H21.8322V68.0838V64.5005H25.4155H28.9989V71.6672ZM57.6658 71.6672V78.8339H54.0824H50.4991V82.4173V86.0006H54.0824H57.6658V89.584V93.1673H54.0824H50.4991V96.7507V100.334H46.9157H43.3323V103.917V107.501H46.9157H50.4991V111.084V114.668H46.9157H43.3323V111.084V107.501H39.749H36.1656V103.917V100.334H21.8322H7.49875V96.7507V93.1673H11.0821H14.6655V89.584V86.0006H21.8322H28.9989V89.584V93.1673H32.5823H36.1656V86.0006V78.8339H43.3323H50.4991V75.2505V71.6672H46.9157H43.3323V68.0838V64.5005H50.4991H57.6658V71.6672ZM129.333 75.2505V78.8339H132.916H136.5V82.4173V86.0006H140.083H143.666V78.8339V71.6672H147.25H150.833V78.8339V86.0006H161.583H172.333V89.584V93.1673H168.75H165.167V96.7507V100.334H158H150.833V96.7507V93.1673H147.25H143.666V100.334V107.501H147.25H150.833V111.084V114.668H147.25H143.666V111.084V107.501H140.083H136.5V111.084V114.668H132.916H129.333V111.084V107.501H132.916H136.5V103.917V100.334H132.916H129.333V96.7507V93.1673H122.166H115V89.584V86.0006H118.583H122.166V78.8339V71.6672H125.75H129.333V75.2505ZM172.333 75.2505V78.8339H165.167H158V75.2505V71.6672H165.167H172.333V75.2505ZM100.666 82.4173V86.0006H104.249H107.833V96.7507V107.501H111.416H115V103.917V100.334H118.583H122.166V103.917V107.501H118.583H115V111.084V114.668H100.666H86.3327V118.251V121.834H79.1659H71.9992V107.501V93.1673H82.7493H93.4994V86.0006V78.8339H97.0827H100.666V82.4173ZM43.3323 89.584V93.1673H39.749H36.1656V96.7507V100.334H39.749H43.3323V96.7507V93.1673H46.9157H50.4991V89.584V86.0006H46.9157H43.3323V89.584ZM129.333 89.584V93.1673H132.916H136.5V89.584V86.0006H132.916H129.333V89.584ZM64.8325 107.501V114.668H61.2491H57.6658V107.501V100.334H61.2491H64.8325V107.501ZM79.1659 107.501V114.668H82.7493H86.3327V111.084V107.501H93.4994H100.666V103.917V100.334H89.916H79.1659V107.501ZM172.333 111.084V114.668H168.75H165.167V111.084V107.501H168.75H172.333V111.084ZM115 129.001V136.168H104.249H93.4994V139.751V143.334H86.3327H79.1659V146.918V150.501H75.5826H71.9992V146.918V143.334H75.5826H79.1659V139.751V136.168H71.9992H64.8325V132.584V129.001H71.9992H79.1659V132.584V136.168H82.7493H86.3327V132.584V129.001H93.4994H100.666V125.418V121.834H107.833H115V129.001ZM143.666 132.584V143.334H132.916H122.166V132.584V121.834H132.916H143.666V132.584ZM0.332031 154.084V179.168H25.4155H50.4991V154.084V129.001H25.4155H0.332031V154.084ZM129.333 132.584V136.168H132.916H136.5V132.584V129.001H132.916H129.333V132.584ZM42.974 154.084V171.643H25.4155H7.85709V154.084V136.526H25.4155H42.974V154.084ZM14.6655 154.084V164.835H25.4155H36.1656V154.084V143.334H25.4155H14.6655V154.084ZM129.333 154.084V157.668H122.166H115V154.084V150.501H122.166H129.333V154.084ZM165.167 154.084V157.668H154.416H143.666V161.251V164.835H140.083H136.5V168.418V172.001H143.666H150.833V175.585V179.168H154.416H158V175.585V172.001H165.167H172.333V175.585V179.168H175.917H179.5V164.835V150.501H172.333H165.167V154.084ZM158 168.418V172.001H154.416H150.833V168.418V164.835H154.416H158V168.418ZM86.3327 175.585V179.168H89.916H93.4994V175.585V172.001H89.916H86.3327V175.585ZM115 175.585V179.168H122.166H129.333V175.585V172.001H122.166H115V175.585Z" fill="#202020"/>
</svg>
