<svg width="70" height="18" viewBox="0 0 70 18" fill="none" xmlns="http://www.w3.org/2000/svg">
<g clip-path="url(#clip0_8109_1235)">
<mask id="mask0_8109_1235" style="mask-type:luminance" maskUnits="userSpaceOnUse" x="0" y="0" width="70" height="18">
<path d="M70 0H0V17.6484H70V0Z" fill="white"/>
</mask>
<g mask="url(#mask0_8109_1235)">
<path d="M14.0898 0.3643H16.4758V2.14308C16.8842 1.45728 17.4646 0.932221 18.2385 0.557179C19.0122 0.182137 19.8828 -0.0107422 20.8716 -0.0107422C22.0646 -0.0107422 23.1179 0.26786 24.0422 0.825067C24.9666 1.38227 25.6758 2.16451 26.181 3.17176C26.6862 4.17902 26.944 5.33629 26.944 6.64359C26.944 7.95088 26.6862 9.14029 26.181 10.1368C25.6758 11.1441 24.9557 11.9263 24.0422 12.4835C23.1286 13.0408 22.0646 13.3194 20.8716 13.3194C19.9581 13.3194 19.152 13.1479 18.4426 12.8265C17.7333 12.4942 17.1744 12.0227 16.7767 11.412V17.627H14.1006V0.3643H14.0898ZM17.7547 9.72965C18.4426 10.5226 19.2917 10.9191 20.4202 10.9191C21.5488 10.9191 22.4193 10.5226 23.1179 9.72965C23.8165 8.9367 24.1605 7.95088 24.1605 6.66501C24.1605 5.37915 23.8165 4.41476 23.1179 3.62181C22.4193 2.82886 21.5488 2.43239 20.4202 2.43239C19.2917 2.43239 18.4426 2.82886 17.7547 3.62181C17.067 4.41476 16.723 5.38986 16.723 6.66501C16.723 7.94015 17.067 8.9367 17.7547 9.72965Z" fill="black"/>
<path d="M31.4155 12.5051C30.4913 11.9478 29.7819 11.1656 29.2767 10.1583C28.7716 9.15106 28.5137 7.98308 28.5137 6.66507C28.5137 5.34706 28.7716 4.20051 29.2767 3.19325C29.7819 2.18599 30.502 1.40376 31.4155 0.846551C32.3291 0.289345 33.3931 0.0107422 34.5861 0.0107422C35.5641 0.0107422 36.4347 0.192906 37.1978 0.557233C37.9609 0.921559 38.552 1.4359 38.9712 2.10026V0.364354H41.3357V12.9657H38.9712V11.2084C38.552 11.8728 37.9609 12.3871 37.1978 12.7729C36.4347 13.1479 35.5641 13.3408 34.5861 13.3408C33.3931 13.3408 32.3398 13.0622 31.4155 12.5051ZM32.3183 9.75113C33.0062 10.5334 33.909 10.9191 35.016 10.9191C36.123 10.9191 37.0151 10.5334 37.6922 9.75113C38.3693 8.9689 38.7025 7.94021 38.7025 6.66507C38.7025 5.38992 38.3693 4.38266 37.6922 3.60044C37.0151 2.8182 36.123 2.43244 35.016 2.43244C33.909 2.43244 33.0062 2.82892 32.3183 3.60044C31.6304 4.38266 31.2758 5.40063 31.2758 6.66507C31.2758 7.92949 31.6197 8.9689 32.3183 9.75113Z" fill="black"/>
<path d="M44.571 15.2911H50.5359C51.3958 15.2911 52.0514 15.0554 52.5028 14.5946C52.9542 14.1338 53.1692 13.4587 53.1692 12.5908V10.8013C52.7178 11.3906 52.1697 11.8407 51.514 12.13C50.8584 12.4193 50.1383 12.5586 49.3429 12.5586C48.1714 12.5586 47.1181 12.3014 46.2046 11.7764C45.2803 11.2513 44.571 10.512 44.0659 9.54756C43.5607 8.58317 43.3027 7.49019 43.3027 6.24719C43.3027 5.0042 43.5607 3.94335 44.0659 3.00039C44.571 2.05743 45.2911 1.31806 46.2046 0.803715C47.129 0.278656 48.1714 0.0214844 49.3429 0.0214844C50.1705 0.0214844 50.9336 0.171501 51.6323 0.482251C52.3308 0.793 52.922 1.24305 53.3948 1.85384V0.36438H55.7593V12.3765C55.7593 14.1552 55.3079 15.484 54.4159 16.3519C53.5239 17.2199 52.2557 17.6485 50.6326 17.6485H44.5602V15.2911H44.571ZM47.0537 9.05465C47.7093 9.77258 48.5583 10.1369 49.6009 10.1369C50.6435 10.1369 51.5032 9.77258 52.1481 9.05465C52.8038 8.33671 53.1261 7.39375 53.1261 6.24719C53.1261 5.10064 52.8038 4.18982 52.1481 3.48259C51.4925 2.77537 50.6435 2.42175 49.6009 2.42175C48.5583 2.42175 47.6986 2.77537 47.0537 3.48259C46.398 4.18982 46.0757 5.11135 46.0757 6.24719C46.0757 7.38303 46.398 8.33671 47.0537 9.05465Z" fill="black"/>
<path d="M59.4774 11.2834C58.3274 10.1583 57.7578 8.59383 57.7578 6.60075C57.7578 5.27203 58.0158 4.11475 58.5316 3.11821C59.0475 2.12167 59.7999 1.35015 60.7242 0.814378C61.6485 0.267887 62.734 0 63.9269 0C65.7971 0 67.2803 0.567922 68.3658 1.69305C69.4513 2.81818 69.9995 4.4255 69.9995 6.36501C69.9995 6.64361 69.978 7.0508 69.9242 7.56514H60.434C60.5092 8.62598 60.8962 9.31176 61.6163 9.8904C62.3364 10.469 63.3788 10.7048 64.7438 10.7048H69.2149V12.9765H64.5503C62.2933 12.9765 60.6275 12.4086 59.4882 11.2834H59.4774ZM67.334 5.50777V5.37918C67.334 4.41478 67.0331 3.63256 66.4312 3.0432C65.8294 2.45385 65.0017 2.15381 63.9378 2.15381C62.8737 2.15381 62.0891 2.46456 61.455 3.07535C60.8209 3.69684 60.4877 4.50051 60.434 5.49705H67.334V5.50777Z" fill="black"/>
<path d="M0 0.364258H3.15983L7.89959 6.66497L12.6399 12.9765H9.48001L6.31991 8.76848L3.15983 12.9765H0L4.73975 6.66497L0 0.364258Z" fill="black"/>
<path d="M7.52332 2.96812L9.47938 0.364258H12.6392L9.54388 4.47901C9.03874 5.15409 8.02845 5.15409 7.52332 4.47901C7.19014 4.02896 7.19014 3.41818 7.52332 2.96812Z" fill="black"/>
</g>
</g>
<defs>
<clipPath id="clip0_8109_1235">
<rect width="70" height="17.193" fill="white"/>
</clipPath>
</defs>
</svg>
